<svg width="97" height="96" viewBox="0 0 97 96" fill="none" xmlns="http://www.w3.org/2000/svg">
<defs>
  <linearGradient id="monoclawBaseGrad" x1="6" y1="4" x2="90" y2="92" gradientUnits="userSpaceOnUse">
    <stop offset="0%" stop-color="#334155"/>
    <stop offset="48%" stop-color="#1E293B"/>
    <stop offset="100%" stop-color="#0F172A"/>
  </linearGradient>
  <linearGradient id="monoclawAccentGrad" x1="18" y1="10" x2="80" y2="82" gradientUnits="userSpaceOnUse">
    <stop offset="0%" stop-color="#93C5FD"/>
    <stop offset="52%" stop-color="#60A5FA"/>
    <stop offset="100%" stop-color="#2563EB"/>
  </linearGradient>
  <filter id="monoclawDepth" x="-18%" y="-18%" width="136%" height="136%" color-interpolation-filters="sRGB">
    <feDropShadow dx="0.9" dy="1.4" stdDeviation="1.3" flood-color="#0B1220" flood-opacity="0.18"/>
    <feDropShadow dx="-0.35" dy="-0.35" stdDeviation="0.45" flood-color="#FFFFFF" flood-opacity="0.12"/>
  </filter>
</defs>
<rect x="0" y="0" width="97" height="96" rx="20" fill="#000000"/>
<path d="M22.361 17.7177C25.4158 17.7177 27.9818 15.1517 27.9818 12.0969C27.9818 9.04214 25.4158 6.47613 22.361 6.47613C19.3062 6.47613 16.7402 9.04214 16.7402 12.0969C16.7402 15.1517 19.3062 17.7177 22.361 17.7177Z" fill="url(#monoclawBaseGrad)" filter="url(#monoclawDepth)" stroke="#FFFFFF" stroke-opacity="0.08" stroke-width="0.6"/>
<path d="M19.3062 57.4298C19.3062 58.2852 20.0393 59.0183 20.8947 59.0183C21.75 59.0183 22.4832 58.2852 22.4832 57.4298C22.4832 56.5745 21.75 55.8413 20.8947 55.8413C20.0393 55.8413 19.3062 56.5745 19.3062 57.4298Z" fill="url(#monoclawBaseGrad)" filter="url(#monoclawDepth)" stroke="#FFFFFF" stroke-opacity="0.08" stroke-width="0.6"/>
<path d="M30.5478 24.8048C31.8919 24.8048 32.8694 23.7051 32.8694 22.4832C32.8694 21.1391 31.7697 20.1615 30.5478 20.1615C29.2037 20.1615 28.2261 21.2613 28.2261 22.4832C28.2261 23.7051 29.2037 24.8048 30.5478 24.8048Z" fill="url(#monoclawBaseGrad)" filter="url(#monoclawDepth)" stroke="#FFFFFF" stroke-opacity="0.08" stroke-width="0.6"/>
<path d="M12.0969 45.9439C15.1517 45.9439 17.7177 43.3778 17.7177 40.3231C17.7177 37.2683 15.1517 34.7023 12.0969 34.7023C9.04215 34.7023 6.47613 37.2683 6.47613 40.3231C6.59832 43.3778 9.04215 45.9439 12.0969 45.9439Z" fill="url(#monoclawBaseGrad)" filter="url(#monoclawDepth)" stroke="#FFFFFF" stroke-opacity="0.08" stroke-width="0.6"/>
<path d="M4.03231 32.7472C5.37641 32.7472 6.35394 31.6475 6.35394 30.4256C6.35394 29.0815 5.25422 28.104 4.03231 28.104C2.68821 28.104 1.71068 29.2037 1.71068 30.4256C1.71068 31.7697 2.68821 32.7472 4.03231 32.7472Z" fill="url(#monoclawBaseGrad)" filter="url(#monoclawDepth)" stroke="#FFFFFF" stroke-opacity="0.08" stroke-width="0.6"/>
<path d="M3.17697 37.8792C3.17697 37.0239 2.44383 36.2908 1.58849 36.2908C0.73315 36.2908 2.86102e-06 37.0239 2.86102e-06 37.8792C2.86102e-06 38.7346 0.73315 39.4677 1.58849 39.4677C2.44383 39.4677 3.17697 38.7346 3.17697 37.8792Z" fill="url(#monoclawBaseGrad)" filter="url(#monoclawDepth)" stroke="#FFFFFF" stroke-opacity="0.08" stroke-width="0.6"/>
<path d="M10.6306 24.6826C12.8301 24.6826 14.5407 22.9719 14.5407 20.7725C14.5407 18.573 12.8301 16.8624 10.6306 16.8624C8.43119 16.8624 6.72051 18.573 6.72051 20.7725C6.72051 22.9719 8.43119 24.6826 10.6306 24.6826Z" fill="url(#monoclawAccentGrad)" filter="url(#monoclawDepth)" stroke="#BFDBFE" stroke-opacity="0.34" stroke-width="0.6"/>
<path d="M58.163 3.17697C59.0183 3.17697 59.7515 2.44382 59.7515 1.58848C59.7515 0.733147 59.0183 0 58.163 0C57.3076 0 56.5745 0.733147 56.5745 1.58848C56.5745 2.44382 57.3076 3.17697 58.163 3.17697Z" fill="url(#monoclawBaseGrad)" filter="url(#monoclawDepth)" stroke="#FFFFFF" stroke-opacity="0.08" stroke-width="0.6"/>
<path d="M15.3961 56.8189C15.3961 53.0309 12.3413 49.9762 8.55338 49.9762C4.76546 49.9762 1.71068 53.0309 1.71068 56.8189C1.71068 60.6068 4.76546 63.6616 8.55338 63.6616C12.3413 63.6616 15.3961 60.6068 15.3961 56.8189Z" fill="url(#monoclawBaseGrad)" filter="url(#monoclawDepth)" stroke="#FFFFFF" stroke-opacity="0.08" stroke-width="0.6"/>
<path d="M83.9453 27.9818C87.0001 27.9818 89.5661 25.4157 89.5661 22.361C89.5661 19.3062 87.0001 16.7402 83.9453 16.7402C80.8905 16.7402 78.3245 19.3062 78.3245 22.361C78.3245 25.4157 80.7683 27.9818 83.9453 27.9818Z" fill="url(#monoclawBaseGrad)" filter="url(#monoclawDepth)" stroke="#FFFFFF" stroke-opacity="0.08" stroke-width="0.6"/>
<path d="M71.3596 66.5942C71.3596 68.7936 73.0703 70.5043 75.2697 70.5043C77.4692 70.5043 79.1798 68.7936 79.1798 66.5942C79.1798 64.3947 77.4692 62.684 75.2697 62.684C73.0703 62.684 71.3596 64.3947 71.3596 66.5942Z" fill="url(#monoclawBaseGrad)" filter="url(#monoclawDepth)" stroke="#FFFFFF" stroke-opacity="0.08" stroke-width="0.6"/>
<path d="M75.2697 14.5407C77.4692 14.5407 79.1798 12.8301 79.1798 10.6306C79.1798 8.43119 77.4692 6.72051 75.2697 6.72051C73.0703 6.72051 71.3596 8.43119 71.3596 10.6306C71.3596 12.8301 73.0703 14.5407 75.2697 14.5407Z" fill="url(#monoclawBaseGrad)" filter="url(#monoclawDepth)" stroke="#FFFFFF" stroke-opacity="0.08" stroke-width="0.6"/>
<path d="M66.5942 24.6826C68.7936 24.6826 70.5043 22.9719 70.5043 20.7725C70.5043 18.573 68.7936 16.8624 66.5942 16.8624C64.3947 16.8624 62.684 18.573 62.684 20.7725C62.684 22.9719 64.3947 24.6826 66.5942 24.6826Z" fill="url(#monoclawAccentGrad)" filter="url(#monoclawDepth)" stroke="#BFDBFE" stroke-opacity="0.34" stroke-width="0.6"/>
<path d="M80.6461 38.4902C80.6461 42.2781 83.7009 45.3329 87.4888 45.3329C91.2768 45.3329 94.3315 42.2781 94.3315 38.4902C94.3315 34.7023 91.2768 31.6475 87.4888 31.6475C83.7009 31.6475 80.6461 34.7023 80.6461 38.4902Z" fill="url(#monoclawBaseGrad)" filter="url(#monoclawDepth)" stroke="#FFFFFF" stroke-opacity="0.08" stroke-width="0.6"/>
<path d="M76.736 37.8792C76.736 37.0239 76.0029 36.2908 75.1475 36.2908C74.2922 36.2908 73.5591 37.0239 73.5591 37.8792C73.5591 38.7346 74.2922 39.4677 75.1475 39.4677C76.0029 39.4677 76.736 38.7346 76.736 37.8792Z" fill="url(#monoclawBaseGrad)" filter="url(#monoclawDepth)" stroke="#FFFFFF" stroke-opacity="0.08" stroke-width="0.6"/>
<path d="M65.4944 6.23175C66.8385 6.23175 67.8161 5.13203 67.8161 3.91012C67.8161 2.6882 66.7164 1.58848 65.4944 1.58848C64.1503 1.58848 63.1728 2.6882 63.1728 3.91012C63.1728 5.13203 64.2725 6.23175 65.4944 6.23175Z" fill="url(#monoclawBaseGrad)" filter="url(#monoclawDepth)" stroke="#FFFFFF" stroke-opacity="0.08" stroke-width="0.6"/>
<path d="M72.8259 32.7472C74.17 32.7472 75.1475 31.6475 75.1475 30.4256C75.1475 29.0815 74.0478 28.104 72.8259 28.104C71.604 28.104 70.5043 29.2037 70.5043 30.4256C70.5043 31.7697 71.604 32.7472 72.8259 32.7472Z" fill="url(#monoclawBaseGrad)" filter="url(#monoclawDepth)" stroke="#FFFFFF" stroke-opacity="0.08" stroke-width="0.6"/>
<path d="M24.6826 28.7149C24.6826 26.5155 22.9719 24.8048 20.7725 24.8048C18.5731 24.8048 16.8624 26.5155 16.8624 28.7149C16.8624 30.9144 18.5731 32.625 20.7725 32.625C22.9719 32.625 24.6826 30.9144 24.6826 28.7149Z" fill="url(#monoclawBaseGrad)" filter="url(#monoclawDepth)" stroke="#FFFFFF" stroke-opacity="0.08" stroke-width="0.6"/>
<path d="M65.4944 70.5043C64.1503 70.5043 63.1728 71.604 63.1728 72.8259C63.1728 74.17 64.2725 75.1475 65.4944 75.1475C66.8385 75.1475 67.8161 74.0478 67.8161 72.8259C67.8161 71.604 66.8385 70.5043 65.4944 70.5043Z" fill="url(#monoclawBaseGrad)" filter="url(#monoclawDepth)" stroke="#FFFFFF" stroke-opacity="0.08" stroke-width="0.6"/>
<path d="M57.552 79.913C53.7641 79.913 50.7093 82.9678 50.7093 86.7557C50.7093 90.5436 53.7641 93.5984 57.552 93.5984C61.3399 93.5984 64.3947 90.5436 64.3947 86.7557C64.3947 82.9678 61.3399 79.913 57.552 79.913Z" fill="url(#monoclawBaseGrad)" filter="url(#monoclawDepth)" stroke="#FFFFFF" stroke-opacity="0.08" stroke-width="0.6"/>
<path d="M73.6812 77.5914C70.6265 77.5914 68.0605 80.1574 68.0605 83.2121C68.0605 86.2669 70.6265 88.8329 73.6812 88.8329C76.736 88.8329 79.302 86.2669 79.302 83.2121C79.302 80.1574 76.736 77.5914 73.6812 77.5914Z" fill="url(#monoclawAccentGrad)" filter="url(#monoclawDepth)" stroke="#BFDBFE" stroke-opacity="0.34" stroke-width="0.6"/>
<path d="M56.5745 75.1475C56.5745 76.0029 57.3076 76.736 58.163 76.736C59.0183 76.736 59.7515 76.0029 59.7515 75.1475C59.7515 74.2922 59.0183 73.559 58.163 73.559C57.3076 73.6812 56.5745 74.2922 56.5745 75.1475Z" fill="url(#monoclawBaseGrad)" filter="url(#monoclawDepth)" stroke="#FFFFFF" stroke-opacity="0.08" stroke-width="0.6"/>
<path d="M94.4537 55.8413C93.5984 55.8413 92.8652 56.5745 92.8652 57.4298C92.8652 58.2852 93.5984 59.0183 94.4537 59.0183C95.3091 59.0183 96.0422 58.2852 96.0422 57.4298C96.0422 56.5745 95.1869 55.8413 94.4537 55.8413Z" fill="url(#monoclawBaseGrad)" filter="url(#monoclawDepth)" stroke="#FFFFFF" stroke-opacity="0.08" stroke-width="0.6"/>
<path d="M92.0099 62.5618C90.6658 62.5618 89.6883 63.6616 89.6883 64.8835C89.6883 66.2276 90.788 67.2051 92.0099 67.2051C93.354 67.2051 94.3315 66.1054 94.3315 64.8835C94.3315 63.5394 93.354 62.5618 92.0099 62.5618Z" fill="url(#monoclawBaseGrad)" filter="url(#monoclawDepth)" stroke="#FFFFFF" stroke-opacity="0.08" stroke-width="0.6"/>
<path d="M54.986 17.7177C58.0408 17.7177 60.6068 15.1517 60.6068 12.0969C60.6068 9.04214 58.0408 6.47613 54.986 6.47613C51.9312 6.47613 49.3652 9.04214 49.3652 12.0969C49.3652 15.1517 51.9312 17.7177 54.986 17.7177Z" fill="url(#monoclawAccentGrad)" filter="url(#monoclawDepth)" stroke="#BFDBFE" stroke-opacity="0.34" stroke-width="0.6"/>
<path d="M83.9453 49.3652C80.8905 49.3652 78.3245 51.9312 78.3245 54.986C78.3245 58.0408 80.8905 60.6068 83.9453 60.6068C87.0001 60.6068 89.5661 58.0408 89.5661 54.986C89.4439 51.9312 87.0001 49.3652 83.9453 49.3652Z" fill="url(#monoclawBaseGrad)" filter="url(#monoclawDepth)" stroke="#FFFFFF" stroke-opacity="0.08" stroke-width="0.6"/>
<path d="M12.0969 67.3273C9.04215 67.3273 6.47613 69.8933 6.47613 72.9481C6.47613 76.0029 9.04215 78.5689 12.0969 78.5689C15.1517 78.5689 17.7177 76.0029 17.7177 72.9481C17.7177 69.8933 15.2739 67.3273 12.0969 67.3273Z" fill="url(#monoclawBaseGrad)" filter="url(#monoclawDepth)" stroke="#FFFFFF" stroke-opacity="0.08" stroke-width="0.6"/>
<path d="M85.4116 70.6265C83.2121 70.6265 81.5015 72.3371 81.5015 74.5366C81.5015 76.736 83.2121 78.4467 85.4116 78.4467C87.611 78.4467 89.3217 76.736 89.3217 74.5366C89.3217 72.3371 87.611 70.6265 85.4116 70.6265Z" fill="url(#monoclawBaseGrad)" filter="url(#monoclawDepth)" stroke="#FFFFFF" stroke-opacity="0.08" stroke-width="0.6"/>
<path d="M23.2163 62.5618C21.8722 62.5618 20.8947 63.6616 20.8947 64.8835C20.8947 66.2276 21.9944 67.2051 23.2163 67.2051C24.4382 67.2051 25.5379 66.1054 25.5379 64.8835C25.5379 63.5394 24.4382 62.5618 23.2163 62.5618Z" fill="url(#monoclawBaseGrad)" filter="url(#monoclawDepth)" stroke="#FFFFFF" stroke-opacity="0.08" stroke-width="0.6"/>
<path d="M29.4481 70.6265C27.2486 70.6265 25.5379 72.3371 25.5379 74.5366C25.5379 76.736 27.2486 78.4467 29.4481 78.4467C31.6475 78.4467 33.3582 76.736 33.3582 74.5366C33.3582 72.3371 31.6475 70.6265 29.4481 70.6265Z" fill="url(#monoclawBaseGrad)" filter="url(#monoclawDepth)" stroke="#FFFFFF" stroke-opacity="0.08" stroke-width="0.6"/>
<path d="M30.5478 89.0773C29.2037 89.0773 28.2261 90.177 28.2261 91.399C28.2261 92.6209 29.3259 93.7206 30.5478 93.7206C31.8919 93.7206 32.8694 92.6209 32.8694 91.399C32.8694 90.177 31.7697 89.0773 30.5478 89.0773Z" fill="url(#monoclawBaseGrad)" filter="url(#monoclawDepth)" stroke="#FFFFFF" stroke-opacity="0.08" stroke-width="0.6"/>
<path d="M20.7725 80.7683C18.5731 80.7683 16.8624 82.479 16.8624 84.6784C16.8624 86.8779 18.5731 88.5886 20.7725 88.5886C22.9719 88.5886 24.6826 86.8779 24.6826 84.6784C24.6826 82.479 22.9719 80.7683 20.7725 80.7683Z" fill="url(#monoclawAccentGrad)" filter="url(#monoclawDepth)" stroke="#BFDBFE" stroke-opacity="0.34" stroke-width="0.6"/>
<path d="M36.413 20.1615C36.413 21.0169 37.1461 21.75 38.0014 21.75C38.8568 21.75 39.5899 21.0169 39.5899 20.1615C39.5899 19.3062 38.8568 18.573 38.0014 18.573C37.0239 18.573 36.413 19.3062 36.413 20.1615Z" fill="url(#monoclawBaseGrad)" filter="url(#monoclawDepth)" stroke="#FFFFFF" stroke-opacity="0.08" stroke-width="0.6"/>
<path d="M45.3329 8.43119C45.3329 4.64326 42.2781 1.58848 38.4902 1.58848C34.7023 1.58848 31.6475 4.64326 31.6475 8.43119C31.6475 12.2191 34.7023 15.2739 38.4902 15.2739C42.2781 15.3961 45.3329 12.3413 45.3329 8.43119Z" fill="url(#monoclawAccentGrad)" filter="url(#monoclawDepth)" stroke="#BFDBFE" stroke-opacity="0.34" stroke-width="0.6"/>
<path d="M37.8792 92.1321C37.0239 92.1321 36.2908 92.8652 36.2908 93.7206C36.2908 94.5759 37.0239 95.3091 37.8792 95.3091C38.7346 95.3091 39.4677 94.5759 39.4677 93.7206C39.4677 92.8652 38.7346 92.1321 37.8792 92.1321Z" fill="url(#monoclawBaseGrad)" filter="url(#monoclawDepth)" stroke="#FFFFFF" stroke-opacity="0.08" stroke-width="0.6"/>
<path d="M41.0562 77.5914C38.0014 77.5914 35.4354 80.1574 35.4354 83.2121C35.4354 86.2669 38.0014 88.8329 41.0562 88.8329C44.111 88.8329 46.677 86.2669 46.677 83.2121C46.677 80.1574 44.111 77.5914 41.0562 77.5914Z" fill="url(#monoclawBaseGrad)" filter="url(#monoclawDepth)" stroke="#FFFFFF" stroke-opacity="0.08" stroke-width="0.6"/>
</svg>
